# AST/ASF file generated using VICON BodyLanguage
# -----------------------------------------------
:version 1.10
:name VICON
:units
  mass 1.0
  length 0.45
  angle deg
:documentation
   .ast/.asf automatically generated from VICON data using
   VICON BodyBuilder and BodyLanguage model FoxedUp or BRILLIANT.MOD
:root
   order TX TY TZ RX RY RZ
   axis XYZ
   position 0 0 0  
   orientation 0 0 0 
:bonedata
  begin
     id 1 
     name lhipjoint
     direction 0.54267 -0.795011 0.271047 
     length 2.39899 
     axis 0 0 0  XYZ
  end
  begin
     id 2 
     name lfemur
     direction 0.34202 -0.939693 0  
     length 7.49701  
     axis 0 0 20  XYZ
    dof rx ry rz
    limits (-160.0 20.0)
           (-70.0 70.0)
           (-60.0 70.0)
  end
  begin
     id 3 
     name ltibia
     direction 0.34202 -0.939693 0   
     length 8.1668   
     axis 0 0 20   XYZ
    dof rx
    limits (-10.0 170.0)
  end
  begin
     id 4 
     name lfoot
     direction 0.0736283 -0.202292 0.976554   
     length 2.13544   
     axis -90 7.62852e-016 20   XYZ
    dof rx rz
    limits (-45.0 90.0)
           (-70.0 20.0)
  end
  begin
     id 5 
     name ltoes
     direction 1.53557e-011 -4.22024e-011 1   
     length 1.07411   
     axis -90 7.62852e-016 20   XYZ
    dof rx
    limits (-90.0 20.0)
  end
  begin
     id 6 
     name rhipjoint
     direction -0.538061 -0.797813 0.272002   
     length 2.39057  
     axis 0 0 0  XYZ 
  end
  begin
     id 7 
     name rfemur
     direction -0.34202 -0.939693 0   
     length 7.50152   
     axis 0 0 -20   XYZ
    dof rx ry rz
    limits (-160.0 20.0)
           (-70.0 70.0)
           (-70.0 60.0)
  end
  begin
     id 8 
     name rtibia
     direction -0.34202 -0.939693 0   
     length 8.05793   
     axis 0 0 -20   XYZ
    dof rx
    limits (-10.0 170.0)
 end
 begin
     id 9 
     name rfoot
     direction -0.0765195 -0.210236 0.974652   
     length 2.28698  
     axis -90 -7.62852e-016 -20   XYZ
    dof rx rz
    limits (-45.0 90.0)
           (-20.0 70.0)
  end
  begin
     id 10 
     name rtoes
     direction -1.53542e-011 -4.21847e-011 1   
     length 1.14762   
     axis -90 -7.62852e-016 -20   XYZ
    dof rx
    limits (-90.0 20.0)
  end
  begin
     id 11 
     name lowerback
     direction -0.0217239 0.996592 -0.0795765   
     length 2.08176   
     axis 0 0 0   XYZ
    dof rx ry rz
    limits (-20.0 45.0)
           (-30.0 30.0)
           (-30.0 30.0)
  end
  begin
     id 12 
     name upperback
     direction -0.00563773 0.999651 -0.0258155   
     length 2.08898   
     axis 0 0 0   XYZ
    dof rx ry rz
    limits (-20.0 45.0)
           (-30.0 30.0)
           (-30.0 30.0)
  end
  begin
     id 13 
     name thorax
     direction 0.0032706 0.999923 0.0119599   
     length 2.0968   
     axis 0 0 0   XYZ
    dof rx ry rz
    limits (-20.0 45.0)
           (-30.0 30.0)
           (-30.0 30.0)
  end
  begin
     id 14 
     name lowerneck
     direction -0.0285886 0.99568 0.0883427   
     length 1.81272   
     axis 0 0 0   XYZ
    dof rx ry rz
    limits (-20.0 45.0)
           (-30.0 30.0)
           (-30.0 30.0)
  end
  begin
     id 15 
     name upperneck
     direction 0.0807535 0.97985 -0.18268   
     length 1.82518   
     axis 0 0 0   XYZ
    dof rx ry rz
    limits (-20.0 45.0)
           (-30.0 30.0)
           (-30.0 30.0)
  end
  begin
     id 16
     name head
     direction 0.0236605 0.997053 -0.0729767  
     length 1.84443  
     axis 0 0 0   XYZ
    dof rx ry rz
    limits (-20.0 45.0)
           (-30.0 30.0)
           (-30.0 30.0)
  end
  begin
     id 17 
     name lclavicle
     direction 0.918986 0.39378 -0.0200683  
     length 3.27822  
     axis 0 0 0   XYZ
    dof ry rz
    limits (-20.0 10.0)
           (0.0 20.0)
  end
  begin
     id 18 
     name lhumerus
     direction 1 -4.4897e-011 2.09544e-027   
     length 5.5568   
     axis 180 -30 -90   XYZ
    dof rx ry rz
    limits (-60.0 90.0)
           (-90.0 90.0)
           (-90.0 90.0)
  end
  begin
     id 19
     name lradius
     direction 1 -4.48957e-011 -1.27696e-026   
     length 3.63979   
     axis 180 -30 -90   XYZ
    dof rx
    limits (-10.0 170.0)
  end
  begin
     id 20
     name lwrist
     direction 1 -4.49001e-011 -1.49001e-026   
     length 1.8199   
     axis 9.0955e-015 90 90   XYZ
    dof ry
    limits (-180.0 0.0)
 end
  begin
     id 21 
     name lhand
     direction 1 -4.48709e-011 -2.9758e-026   
     length 0.569419   
     axis 1.90115e-014 90 90   XYZ
    dof rx rz
    limits (-90.0 90.0)
           (-45.0 45.0)
  end
  begin
     id 22 
     name lfingers
     direction 1 -4.49175e-011 -5.96505e-026   
     length 0.45908   
     axis 3.80223e-014 90 90   XYZ
    dof rx
    limits (0.0 90.0)
  end
  begin
     id 23
     name lthumb
     direction 0.707107 -6.34864e-011 0.707107   
     length 0.65915   
     axis -90 45 -3.84942e-014   XYZ
    dof rx rz
    limits (-45.0 45.0)
           (-45.0 45.0)
  end
  begin
     id 24 
     name rclavicle
     direction -0.911913 0.396426 -0.106115   
     length 3.46301  
     axis 0 0 0   XYZ 
    dof ry rz
    limits (-10.0 20.0)
           (-20.0 0.0)
  end
  begin
     id 25 
     name rhumerus
     direction -1 -4.48965e-011 7.78516e-028  
     length 5.34339   
     axis 180 30 90   XYZ
    dof rx ry rz
    limits (-90.0 60.0)
           (-90.0 90.0)
           (-90.0 90.0)
  end
  begin
     id 26 
     name rradius
     direction -1 -4.48948e-011 -5.79823e-027   
     length 3.65101   
     axis 180 30 90   XYZ
    dof rx
    limits (-10.0 170.0)
  end
  begin
     id 27 
     name rwrist
     direction -1 -4.48995e-011 -1.48996e-026   
     length 1.8255   
     axis 9.0955e-015 -90 -90   XYZ
    dof ry
    limits (-180.0 0.0)
  end
  begin
     id 28
     name rhand
     direction -1 -4.48957e-011 -2.97937e-026   
     length 0.694249   
     axis 1.90115e-014 -90 -90   XYZ
    dof rx rz
    limits (-90.0 90.0)
           (-45.0 45.0)
  end
  begin
     id 29
     name rfingers
     direction -1 -4.4898e-011 -5.95943e-026   
     length 0.559721   
     axis 3.80223e-014 -90 -90   XYZ
    dof rx
    limits (0.0 90.0)
  end
  begin
     id 30
     name rthumb
     direction -0.707107 -6.34969e-011 0.707107   
     length 0.803651   
     axis -90 -45 3.84942e-014   XYZ
    dof rx rz
    limits (-45.0 45.0)
           (-45.0 45.0)
  end
:hierarchy
  begin
    root lhipjoint rhipjoint lowerback
    lhipjoint lfemur
    lfemur ltibia
    ltibia lfoot
    lfoot ltoes
    rhipjoint rfemur
    rfemur rtibia
    rtibia rfoot
    rfoot rtoes
    lowerback upperback
    upperback thorax
    thorax lowerneck lclavicle rclavicle
    lowerneck upperneck
    upperneck head
    lclavicle lhumerus
    lhumerus lradius
    lradius lwrist
    lwrist lhand lthumb
    lhand lfingers
    rclavicle rhumerus
    rhumerus rradius
    rradius rwrist
    rwrist rhand rthumb
    rhand rfingers
  end

#!OML:ASF H:\Terrain\Walking\May29\JustinRory\rory.ASF
:FULLY-SPECIFIED
:DEGREES
913
root 6.35147 18.8867 8.71905 -175.176 2.55423 -180.997
lowerback 0.808588 0.463919 -2.0561
upperback 0.607992 0.623855 -0.657609
thorax 0.154876 0.31418 0.47486
lowerneck -11.1113 -3.00965 -2.53027
upperneck 15.4158 -3.67289 1.68453
head 6.60395 -1.67181 0.638686
rclavicle -5.54112e-015 7.7526e-015
rhumerus -0.0222854 0.543908 -15.8366
rradius 121.834
rwrist -13.4506
rhand -17.9373 42.8305
rfingers 7.12502
rthumb 8.3308 -346.985
lclavicle -5.54112e-015 7.7526e-015
lhumerus -1.50189 6.65508 23.3697
lradius 127.669
lwrist 15.9194
lhand -22.4888 14.1661
lfingers 7.12502
lthumb 3.93671 44.1095
rfemur -4.43813 10.7374 14.8557
rtibia 12.3402
rfoot -5.71053 -18.419
rtoes 7.84927
lfemur -1.03595 -3.73718 -19.1541
ltibia 8.99636
lfoot -11.8647 11.8535
ltoes -10.5576
914
root 6.34807 18.8955 8.72161 -175.199 2.51982 -180.843
lowerback 0.98682 0.430674 -1.9097
upperback 0.606391 0.574992 -0.621957
thorax 0.0555003 0.290606 0.428217
lowerneck -11.0174 -2.99998 -2.46867
upperneck 15.4403 -3.67321 1.71488
head 6.5948 -1.66411 0.639724
rclavicle 5.01931e-015 9.54166e-015
rhumerus -0.883609 1.38087 -15.2641
rradius 122.128
rwrist -15.4276
rhand -16.831 42.3576
rfingers 7.12502
rthumb 9.39839 -347.413
lclavicle 5.01931e-015 9.54166e-015
lhumerus -2.79844 6.72393 23.1098
lradius 128.381
lwrist 18.3757
lhand -20.9346 14.7823
lfingers 7.12502
lthumb 5.43753 44.6925
rfemur -4.44838 11.0371 15.0173
rtibia 12.4056
rfoot -6.03669 -18.6951
rtoes 9.78291
lfemur -1.07493 -3.76335 -18.9852
ltibia 9.05914
lfoot -11.8135 11.8359
ltoes -10.0077
915
root 6.34926 18.8948 8.72507 -175.233 2.53172 -180.774
lowerback 1.16582 0.354979 -1.96039
upperback 0.543265 0.465615 -0.492807
thorax -0.108549 0.236284 0.588313
lowerneck -10.6108 -2.91684 -2.68158
upperneck 15.2308 -3.53852 1.79126
head 6.45992 -1.60733 0.71739
rclavicle 6.32384e-015 -3.97569e-015
rhumerus -1.4674 2.36663 -14.8096
rradius 122.532
rwrist -17.5759
rhand -15.3997 41.3057
rfingers 7.12502
rthumb 10.7792 -348.398
lclavicle 6.32384e-015 -3.97569e-015
lhumerus -4.45528 6.63755 22.9189
lradius 129.082
lwrist 20.6329
lhand -19.3385 15.3023
lfingers 7.12502
lthumb 6.97844 45.1673
rfemur -4.45905 11.0047 15.0996
rtibia 12.4927
rfoot -6.10111 -18.5696
rtoes 10.9641
lfemur -1.15775 -3.7506 -18.9027
ltibia 9.28834
lfoot -11.8193 11.7372
ltoes -10.3755
916
root 6.3481 18.8832 8.72006 -175.28 2.72935 -180.834
lowerback 1.16788 0.298905 -2.09811
upperback 0.472649 0.386386 -0.400834
thorax -0.181559 0.196655 0.760329
lowerneck -9.87112 -2.74293 -3.07112
upperneck 14.8522 -3.28051 2.01417
head 6.21629 -1.48997 0.884993
rclavicle 4.42296e-015 -2.78299e-015
rhumerus -2.03814 3.68609 -14.4719
rradius 123.007
rwrist -19.6535
rhand -14.9413 40.7006
rfingers 7.12502
rthumb 11.2214 -348.979
lclavicle 4.42296e-015 -2.78299e-015
lhumerus -6.29701 6.53207 22.81
lradius 129.812
lwrist 22.5711
lhand -18.2866 15.6607
lfingers 7.12502
lthumb 7.99374 45.4896
rfemur -4.48426 10.6486 15.0016
rtibia 12.5557
rfoot -5.89788 -18.108
rtoes 10.3444
lfemur -1.25075 -3.56549 -19.0203
ltibia 9.7013
lfoot -12.0113 11.5689
ltoes -10.0871
917
root 6.34331 18.8715 8.71467 -175.266 2.80916 -180.83
lowerback 1.16447 0.204102 -2.07723
upperback 0.437868 0.258689 -0.355748
thorax -0.211736 0.132803 0.796424
lowerneck -9.64157 -2.60943 -3.19321
upperneck 14.9084 -3.07251 2.00915
head 6.19096 -1.39275 0.92389
rclavicle 1.0461e-014 1.19271e-015
rhumerus -2.78476 5.05843 -14.2871
rradius 123.393
rwrist -20.9905
rhand -15.2053 41.2553
rfingers 7.12502
rthumb 10.9667 -348.438
lclavicle 1.0461e-014 1.19271e-015
lhumerus -8.05419 6.6104 22.805
lradius 130.577
lwrist 24.2515
lhand -17.0076 15.6886
lfingers 7.12502
lthumb 9.22805 45.4667
rfemur -4.57525 10.6511 14.9606
rtibia 12.6783
rfoot -5.96553 -18.1238
rtoes 10.5655
lfemur -1.47107 -3.49183 -19.0705
ltibia 10.1634
lfoot -12.3122 11.6364
ltoes -10.3391
918
root 6.34425 18.8667 8.71405 -175.336 2.88542 -180.697
lowerback 1.28095 0.201485 -1.93569
upperback 0.572331 0.257806 -0.366223
thorax -0.138659 0.131839 0.706304
lowerneck -10.1153 -2.60414 -2.76019
upperneck 15.2857 -3.04654 1.5417
head 6.37759 -1.38794 0.700595
rclavicle 9.81499e-016 -4.07509e-015
rhumerus -3.87784 6.03196 -14.423
rradius 123.712
rwrist -21.7374
rhand -15.0613 41.4781
rfingers 7.12502
rthumb 11.1057 -348.208
lclavicle 9.81499e-016 -4.07509e-015
lhumerus -9.27191 6.77316 22.9306
lradius 131.275
lwrist 25.6371
lhand -15.2721 15.9895
lfingers 7.12502
lthumb 10.9023 45.6864
rfemur -4.49066 10.8187 15.1285
rtibia 12.6984
rfoot -6.09334 -18.1019
rtoes 10.474
lfemur -1.69907 -3.32141 -18.9038
ltibia 10.7771
lfoot -12.7626 11.7067
ltoes -11.5266
919
root 6.34228 18.8781 8.70247 -175.062 3.21136 -180.722
lowerback 0.842342 0.330992 -1.9228
upperback 0.656963 0.444029 -0.473114
thorax 0.189735 0.222418 0.590267
lowerneck -10.4037 -2.64551 -2.26432
upperneck 15.4334 -3.11281 1.11317
head 6.46069 -1.42556 0.473131
rclavicle 1.51573e-015 -3.18055e-015
rhumerus -5.22832 6.96033 -14.8126
rradius 124.17
rwrist -22.5486
rhand -14.6997 40.694
rfingers 7.12502
rthumb 11.4543 -348.973
lclavicle 1.51573e-015 -3.18055e-015
lhumerus -10.3207 6.81581 23.2321
lradius 131.958
lwrist 26.8342
lhand -13.408 16.6548
lfingers 7.12502
lthumb 12.6999 46.2486
rfemur -4.73103 10.6978 15.0152
rtibia 12.5062
rfoot -5.84183 -17.6626
rtoes 9.02793
lfemur -2.35352 -3.11985 -18.9148
ltibia 11.5745
lfoot -13.369 11.6735
ltoes -10.389
920
root 6.33803 18.8924 8.68953 -174.872 3.45959 -180.831
lowerback 0.591063 0.333837 -2.03591
upperback 0.639958 0.453005 -0.484439
thorax 0.312189 0.22534 0.643548
lowerneck -10.3026 -2.57211 -2.45157
upperneck 15.3954 -3.01091 1.29294
head 6.43518 -1.37238 0.571375
rclavicle -6.21202e-017 -7.7526e-015
rhumerus -6.3956 8.23827 -15.295
rradius 124.716
rwrist -23.6605
rhand -14.0323 40.1068
rfingers 7.12502
rthumb 12.0979 -349.523
lclavicle -6.21202e-017 -7.7526e-015
lhumerus -11.9506 6.89575 23.6864
lradius 132.689
lwrist 28.206
lhand -11.5007 17.0554
lfingers 7.12502
lthumb 14.5381 46.526
rfemur -4.95791 10.7448 14.8267
rtibia 12.4776
rfoot -5.84029 -17.5418
rtoes 8.80215
lfemur -2.79658 -2.93912 -19.0119
ltibia 12.1564
lfoot -13.8163 11.3972
ltoes -7.08044
921
root 6.33359 18.894 8.68733 -175.005 3.44536 -180.718
lowerback 0.873533 0.326958 -1.91723
upperback 0.663585 0.437743 -0.448821
thorax 0.179037 0.219193 0.611875
lowerneck -10.131 -2.55241 -2.65837
upperneck 15.3046 -3.01066 1.65183
head 6.38538 -1.3554 0.721899
rclavicle 6.58474e-015 -1.78906e-015
rhumerus -7.97296 9.47832 -15.9892
rradius 125.428
rwrist -24.8686
rhand -13.2021 40.0599
rfingers 7.12502
rthumb 12.8984 -349.521
lclavicle 6.58474e-015 -1.78906e-015
lhumerus -13.3871 6.92714 24.3724
lradius 133.459
lwrist 29.6119
lhand -9.26624 17.8431
lfingers 7.12502
lthumb 16.6901 47.1456
rfemur -4.99325 10.8718 14.9629
rtibia 12.8494
rfoot -6.26964 -17.6625
rtoes 9.0429
lfemur -2.76353 -2.97086 -18.882
ltibia 12.4321
lfoot -14.0522 11.2272
ltoes -5.54287
922
root 6.32882 18.876 8.69928 -175.441 3.06405 -180.749
lowerback 1.66057 0.372036 -1.83812
upperback 0.750205 0.487161 -0.582533
thorax -0.172523 0.24957 0.42508
lowerneck -10.0614 -2.71241 -2.27934
upperneck 15.2141 -3.29764 1.6642
head 6.3442 -1.47257 0.640113
rclavicle 2.21148e-015 -1.39149e-015
rhumerus -10.1727 10.4586 -17.2136
rradius 126.254
rwrist -25.9709
rhand -12.1415 39.9048
rfingers 7.12502
rthumb 13.9207 -349.609
lclavicle 2.21148e-015 -1.39149e-015
lhumerus -14.3011 6.69005 25.3414
lradius 134.312
lwrist 30.7282
lhand -6.67974 19.0365
lfingers 7.12502
lthumb 19.1788 48.1109
rfemur -4.74908 10.6024 15.0036
rtibia 13.3693
rfoot -6.49029 -17.774
rtoes 9.00128
lfemur -2.52405 -3.21714 -18.9575
ltibia 12.6909
lfoot -14.0634 11.1494
ltoes -7.19833
923
root 6.32603 18.8499 8.70224 -175.492 2.92947 -180.767
lowerback 1.87253 0.430278 -1.74397
upperback 0.773881 0.564325 -0.688811
thorax -0.26663 0.290371 0.260518
lowerneck -9.95935 -2.79222 -1.99809
upperneck 15.0102 -3.45763 1.64603
head 6.25939 -1.5399 0.576469
rclavicle -8.67198e-015 -4.17448e-015
rhumerus -12.2175 11.4522 -18.7766
rradius 126.967
rwrist -27.0548
rhand -10.8408 39.4198
rfingers 7.12502
rthumb 15.1739 -350.004
lclavicle -8.67198e-015 -4.17448e-015
lhumerus -15.4841 6.44067 26.5383
lradius 135.142
lwrist 31.8111
lhand -4.39384 19.5342
lfingers 7.12502
lthumb 21.3757 48.3752
rfemur -4.92756 10.2582 14.975
rtibia 13.8108
rfoot -6.45729 -17.6024
rtoes 9.72002
lfemur -2.71381 -2.91248 -18.9937
ltibia 13.1065
lfoot -14.0731 10.7834
ltoes -9.51379
